<?xml version="1.0" encoding="utf-8"?>
<!-- Generator: Adobe Illustrator 25.4.1, SVG Export Plug-In . SVG Version: 6.00 Build 0)  -->
<!DOCTYPE svg PUBLIC "-//W3C//DTD SVG 1.1//EN" "http://www.w3.org/Graphics/SVG/1.1/DTD/svg11.dtd" [
	<!ENTITY ns_extend "http://ns.adobe.com/Extensibility/1.0/">
	<!ENTITY ns_ai "http://ns.adobe.com/AdobeIllustrator/10.0/">
	<!ENTITY ns_graphs "http://ns.adobe.com/Graphs/1.0/">
	<!ENTITY ns_vars "http://ns.adobe.com/Variables/1.0/">
	<!ENTITY ns_imrep "http://ns.adobe.com/ImageReplacement/1.0/">
	<!ENTITY ns_sfw "http://ns.adobe.com/SaveForWeb/1.0/">
	<!ENTITY ns_custom "http://ns.adobe.com/GenericCustomNamespace/1.0/">
	<!ENTITY ns_adobe_xpath "http://ns.adobe.com/XPath/1.0/">
]>
<svg version="1.1" id="Layer_1" xmlns:x="&ns_extend;" xmlns:i="&ns_ai;" xmlns:graph="&ns_graphs;"
	 xmlns="http://www.w3.org/2000/svg" xmlns:xlink="http://www.w3.org/1999/xlink" x="0px" y="0px" viewBox="0 0 512 512"
	 enable-background="new 0 0 512 512" xml:space="preserve">
<metadata>
	<sfw  xmlns="&ns_sfw;">
		<slices></slices>
		<sliceSourceBounds  bottomLeftOrigin="true" height="433.5178833" width="329.265686" x="-28.9601231" y="-262.1953125">
			</sliceSourceBounds>
	</sfw>
</metadata>
<path display="none" fill="#878D96" stroke="#FFFFFF" stroke-width="0.75" stroke-miterlimit="10" d="M325.5089417,60.3122597
	v98.0151062c0,6.1811371-5.2981262,11.479248-11.479248,11.479248H197.4711914c-6.1811218,0-11.479248-5.298111-11.479248-11.479248
	V59.4292412c0-3.5320778-3.532074-7.0641518-7.0641479-7.0641518h-57.396225c-3.532074,0-7.0641556,3.532074-7.0641556,7.0641518
	v384.1132507c0,3.5321045,3.5320816,7.0641479,7.0641556,7.0641479h56.5132141c3.532074,0,7.0641479-3.532074,7.0641479-7.0641479
	V255.4594421c0-6.1811371,5.2981262-11.4792328,11.479248-11.4792328h116.5584869
	c6.1811523,0,11.479248,5.298111,11.479248,11.4792328v189.8490601c0,3.532074,3.532074,7.0641479,7.0641479,7.0641479h56.5132141
	c3.532074,0,7.0641479-3.5321045,7.0641479-7.0641479V60.3122597c0-3.5320778-3.532074-7.0641518-7.0641479-7.0641518h-56.5132141
	C328.1579895,53.2481079,325.5089417,55.8971634,325.5089417,60.3122597z"/>
<path fill="#878D96" d="M293.2588806,145.5245819c4.9532166,0.0000153,8.9686279-4.0153656,8.9686279-8.9685822
	c0-0.0000153,0-0.0000305,0-0.0000458V57.3190193c0.0290527-9.9290695,8.0709229-17.9709511,18-18h82.2727661
	c9.9290771,0.0290489,17.9709473,8.0709305,18,18v397.2055359c-0.0290527,9.9290771-8.0709229,17.9709473-18,18h-81.4214478
	c-9.9290771-0.0290527-17.9709473-8.0709229-18-18V275.3190308c0-4.9532471-4.0153503-8.9686279-8.9685974-8.9686279h-0.0000305
	c0,0,5.744873,0.036377,5.7414551,0.0546265l-82.2269897,0.2576904c-4.9532318,0-8.9686279,4.0153809-8.9686279,8.9685974v0.0000305
	v179.2055359c-0.029068,9.9290466-8.0709381,17.9709167-18,18h-81.4214706c-9.9290619-0.0290833-17.970932-8.0709534-18-18
	V57.6313286c0.0290451-9.9290695,8.0709305-17.9709511,18-18h82.272789c9.9290619,0.0290489,17.9709473,8.0709305,18,18v79.2369385
	c-0.0000153,4.9532166,4.0153656,8.9686127,8.9685974,8.9686279c0,0,0.0000153,0,0.0000305,0 M201.5124054,244.0842133
	l108.9879913-0.1553955c8.2842712,0,15,6.7157288,15,14.9999847l0,0V443.051178
	c0.0146179,4.9931335,4.0586853,9.0372009,9.0518188,9.0518188h54.4746704
	c4.9931335-0.0146179,9.0372009-4.0586853,9.0518188-9.0518188V68.7924042
	c-0.0146179-4.9931221-4.0587158-9.0372086-9.0518188-9.051815H333.70047
	c-4.9928894,0.0146141-9.0367737,4.0585098-9.0513916,9.0513878v84.1541138c0,8.2842712-6.7157288,15-15,15l-93.3599243,0.321167
	l-14.2033691-0.0088501c-8.2842712,0-15-6.7157288-15-15l0,0V69.1042938
	c-0.0146179-4.9928894-4.0585175-9.0367889-9.0514069-9.0513916h-55.3263779
	c-4.9931183,0.0146027-9.0372162,4.0587006-9.0518188,9.0518188v374.2587891
	c0.0146027,4.9931335,4.0587006,9.0372009,9.0518188,9.0518188h54.474678
	c4.9931183-0.0146179,9.0372162-4.0586853,9.0518188-9.0518188v-184.122345c0-8.2842712,6.7157288-15,15-15"/>
</svg>
